<svg width="40" height="47" viewBox="0 0 40 47" fill="none" xmlns="http://www.w3.org/2000/svg">
<path d="M20 47C31.0457 47 40 42.9706 40 38C40 33.0294 31.0457 29 20 29C8.9543 29 0 33.0294 0 38C0 42.9706 8.9543 47 20 47Z" fill="black"/>
<path d="M20 33C31.0457 33 40 28.9706 40 24C40 19.0294 31.0457 15 20 15C8.9543 15 0 19.0294 0 24C0 28.9706 8.9543 33 20 33Z" fill="#919AA6"/>
<path d="M20 19C31.0457 19 40 14.7467 40 9.5C40 4.25329 31.0457 0 20 0C8.9543 0 0 4.25329 0 9.5C0 14.7467 8.9543 19 20 19Z" fill="white"/>
</svg>
