<svg width="210" height="111" viewBox="0 0 210 111" fill="none" xmlns="http://www.w3.org/2000/svg">
<path d="M120.3 110.353C150.675 110.353 175.3 85.7282 175.3 55.3525C175.3 24.9769 150.675 0.352539 120.3 0.352539C89.9241 0.352539 65.2998 24.9769 65.2998 55.3525C65.2998 85.7282 89.9241 110.353 120.3 110.353Z" fill="black"/>
<path d="M0 110.353C0 110.353 25 70.5 50.5 70.5C65.2 70.5 74.7 81.5 93 81.5C125.7 81.5 136.5 9.50004 166 3.00018C192 -2.72854 210 63.9525 210 110.453L0 110.453V110.353Z" fill="white"/>
<path d="M120 79C132.15 79 142 69.1503 142 57C142 44.8497 132.15 35 120 35C107.85 35 98 44.8497 98 57C98 69.1503 107.85 79 120 79Z" fill="#AD033B"/>
<path fill-rule="evenodd" clip-rule="evenodd" d="M108.333 75.6545C117.657 68.2287 125.119 54.7649 132.527 41.3959C132.854 40.8075 133.18 40.2193 133.506 39.6318C138.675 43.6574 142 49.9404 142 56.9999C142 69.1502 132.15 78.9999 120 78.9999C115.714 78.9999 111.715 77.7744 108.333 75.6545Z" fill="#E8C9DB"/>
</svg>
