<svg version="1.0" xmlns="http://www.w3.org/2000/svg" width="160" height="160" viewBox="0 0 120 120"><path d="M51.8 1.1c-1.6.4-2.8.5-2.8.2s-.8.1-1.7.8c-1.4 1.2-1.5 1.2-.9.1.7-1.1.4-1.2-1-.4-1.1.5-2.5.7-3.3.4-.8-.3-1.1 0-.7.7.4.6 0 1.1-1 1.1-3 0-14.2 6.1-18.5 10.1-2.3 2.2-4.5 3.9-4.8 3.9-2.2.1-13.5 19.3-14.7 25-.3 1.4-.8 3.8-1.2 5.5-1 4.3-.6 25.6.5 26.4.5.3 1 1.9 1.1 3.5.1 1.7.5 3.2 1 3.5.4.3 1.8 2.8 3.1 5.6 2.9 6.2 9.2 14.1 15 18.6 2.3 1.9 4.9 4 5.7 4.7.7.7 1.7 1.3 2.1 1.4.4 0 3.1 1.1 5.8 2.3 9.3 4.2 13 5 24.5 4.9 10.2 0 15-.5 15-1.6 0-.4 1-.8 2.2-.8 1.2 0 5.6-1.7 9.7-3.7 13.4-6.7 27.3-23.1 29.7-35.2.4-1.7.9-3.1 1.3-3.1 1.8 0 1.7-27.7-.2-29.6-.4-.4-.7-1.3-.7-2.1 0-.7-.7-3-1.7-5.1-.9-2-1.7-3.9-1.7-4.2-.8-4.1-17.1-23-19.9-23-.6 0-2.1-.9-3.3-2.1-1.2-1.1-2.8-2.2-3.5-2.3-.8-.1-3.1-1-5.3-1.9-2.1-.9-4.5-1.7-5.2-1.7-.8 0-1.4-.3-1.4-.8 0-.4-1-.8-2.2-.9-11.6-.8-18.7-.9-21-.2z"/></svg>