<svg width="210" height="111" fill="none" xmlns="http://www.w3.org/2000/svg"><path d="M120.3 110.353c30.375 0 55-24.625 55-55 0-30.376-24.625-55-55-55-30.376 0-55 24.624-55 55 0 30.375 24.624 55 55 55z" fill="#000"/><path d="M0 110.353S25 70.5 50.5 70.5c14.7 0 24.2 11 42.5 11 32.7 0 43.5-72 73-78.5 26-5.729 44 60.953 44 107.453H0v-.1z" fill="#fff"/><path d="M120 79c12.15 0 22-9.85 22-22s-9.85-22-22-22-22 9.85-22 22 9.85 22 22 22z" fill="#AD033B"/><path fill-rule="evenodd" clip-rule="evenodd" d="M108.333 75.654c9.324-7.425 16.786-20.89 24.194-34.258l.979-1.764C138.675 43.657 142 49.94 142 57c0 12.15-9.85 22-22 22a21.894 21.894 0 0 1-11.667-3.346z" fill="#E8C9DB"/></svg>