<?xml version="1.0" standalone="no"?>
<!DOCTYPE svg PUBLIC "-//W3C//DTD SVG 20010904//EN"
 "http://www.w3.org/TR/2001/REC-SVG-20010904/DTD/svg10.dtd">
<svg version="1.0" xmlns="http://www.w3.org/2000/svg"
 width="120.000000pt" height="120.000000pt" viewBox="0 0 120.000000 120.000000"
 preserveAspectRatio="xMidYMid meet">
<metadata>
Created by potrace 1.11, written by Peter Selinger 2001-2013
</metadata>
<g transform="translate(0.000000,120.000000) scale(0.100000,-0.100000)"
fill="#000000" stroke="none">
<path d="M518 1189 c-16 -4 -28 -5 -28 -2 0 3 -8 -1 -17 -8 -14 -12 -15 -12
-9 -1 7 11 4 12 -10 4 -11 -5 -25 -7 -33 -4 -8 3 -11 0 -7 -7 4 -6 0 -11 -10
-11 -30 0 -142 -61 -185 -101 -23 -22 -45 -39 -48 -39 -22 -1 -135 -193 -147
-250 -3 -14 -8 -38 -12 -55 -10 -43 -6 -256 5 -264 5 -3 10 -19 11 -35 1 -17
5 -32 10 -35 4 -3 18 -28 31 -56 29 -62 92 -141 150 -186 23 -19 49 -40 57
-47 7 -7 17 -13 21 -14 4 0 31 -11 58 -23 93 -42 130 -50 245 -49 102 0 150 5
150 16 0 4 10 8 22 8 12 0 56 17 97 37 134 67 273 231 297 352 4 17 9 31 13
31 18 0 17 277 -2 296 -4 4 -7 13 -7 21 0 7 -7 30 -17 51 -9 20 -17 39 -17 42
-8 41 -171 230 -199 230 -6 0 -21 9 -33 21 -12 11 -28 22 -35 23 -8 1 -31 10
-53 19 -21 9 -45 17 -52 17 -8 0 -14 3 -14 8 0 4 -10 8 -22 9 -116 8 -187 9
-210 2z"/>
</g>
</svg>
